<?xml version="1.0" ?>
<mxfile host="app.diagrams.net" agent="doodle-ai">
  <diagram id="diagram-1" name="Page-1">
    <mxGraphModel dx="1400" dy="800" grid="1" gridSize="10" guides="1" tooltips="1" connect="1" arrows="1">
      <root>
        <mxCell id="0"/>
        <mxCell id="1" parent="0"/>
        <mxCell id="2" value="User" style="rounded=1;whiteSpace=wrap;html=1;arcSize=12;" parent="1" vertex="1">
          <mxGeometry x="510.0" y="40" width="120" height="80" as="geometry"/>
        </mxCell>
        <mxCell id="3" value="Route 53" style="rounded=1;whiteSpace=wrap;html=1;arcSize=12;" parent="1" vertex="1">
          <mxGeometry x="510.0" y="180" width="120" height="80" as="geometry"/>
        </mxCell>
        <mxCell id="4" value="Application Load Balancer" style="rounded=1;whiteSpace=wrap;html=1;arcSize=12;" parent="1" vertex="1">
          <mxGeometry x="510.0" y="320" width="120" height="80" as="geometry"/>
        </mxCell>
        <mxCell id="5" value="EC2 Auto Scaling Group" style="rounded=1;whiteSpace=wrap;html=1;arcSize=12;" parent="1" vertex="1">
          <mxGeometry x="510.0" y="460" width="120" height="80" as="geometry"/>
        </mxCell>
        <mxCell id="6" value="RDS PostgreSQL Instance" style="rounded=1;whiteSpace=wrap;html=1;arcSize=12;" parent="1" vertex="1">
          <mxGeometry x="420.0" y="600" width="120" height="80" as="geometry"/>
        </mxCell>
        <mxCell id="7" value="S3 Bucket" style="rounded=1;whiteSpace=wrap;html=1;arcSize=12;" parent="1" vertex="1">
          <mxGeometry x="600.0" y="600" width="120" height="80" as="geometry"/>
        </mxCell>
        <mxCell id="8" value="DNS Resolution" style="edgeStyle=orthogonalEdgeStyle;rounded=0;orthogonalLoop=1;jettySize=auto;html=1;endArrow=classic;endFill=1;" parent="1" edge="1" source="2" target="3">
          <mxGeometry relative="1" as="geometry"/>
        </mxCell>
        <mxCell id="9" value="DNS Resolution" style="edgeStyle=orthogonalEdgeStyle;rounded=0;orthogonalLoop=1;jettySize=auto;html=1;endArrow=classic;endFill=1;" parent="1" edge="1" source="3" target="4">
          <mxGeometry relative="1" as="geometry"/>
        </mxCell>
        <mxCell id="10" value="HTTPS Request" style="edgeStyle=orthogonalEdgeStyle;rounded=0;orthogonalLoop=1;jettySize=auto;html=1;endArrow=classic;endFill=1;" parent="1" edge="1" source="4" target="5">
          <mxGeometry relative="1" as="geometry"/>
        </mxCell>
        <mxCell id="11" value="Database Access" style="edgeStyle=orthogonalEdgeStyle;rounded=0;orthogonalLoop=1;jettySize=auto;html=1;endArrow=classic;endFill=1;" parent="1" edge="1" source="5" target="6">
          <mxGeometry relative="1" as="geometry"/>
        </mxCell>
        <mxCell id="12" value="Static Asset Retrieval" style="edgeStyle=orthogonalEdgeStyle;rounded=0;orthogonalLoop=1;jettySize=auto;html=1;endArrow=classic;endFill=1;" parent="1" edge="1" source="5" target="7">
          <mxGeometry relative="1" as="geometry"/>
        </mxCell>
      </root>
    </mxGraphModel>
  </diagram>
</mxfile>
